<svg xmlns="http://www.w3.org/2000/svg" viewBox="0 0 200 200" xmlns:v="https://vecta.io/nano"><path fill="#fff" d="M135 80a15.02 15.02 0 0 1-15-15 15.02 15.02 0 0 1 15-15 15.02 15.02 0 0 1 15 15 15.02 15.02 0 0 1-15 15zm0-20c-2.757 0-5 2.243-5 5s2.243 5 5 5 5-2.243 5-5-2.243-5-5-5zm0 120c-24.813 0-45-20.187-45-45s20.187-45 45-45 45 20.187 45 45-20.187 45-45 45zm0-80c-19.299 0-35 15.701-35 35s15.701 35 35 35 35-15.701 35-35-15.701-35-35-35zm-67.021 75.05L24.95 132.021c-6.643-6.643-6.645-17.396 0-24.041l70.657-70.657A24.83 24.83 0 0 1 113.284 30H155a15.02 15.02 0 0 1 15 15v38.027a5 5 0 1 1-10 0V45c0-2.757-2.243-5-5-5h-41.716a14.9 14.9 0 0 0-10.606 4.393L32.021 115.05a6.997 6.997 0 0 0 0 9.9l43.029 43.029c2.583 2.582 6.768 2.738 9.524.35a4.998 4.998 0 0 1 7.053.506 5 5 0 0 1-.506 7.053c-6.706 5.808-16.872 5.432-23.142-.838zm64.191-15.927l-14.943-9.963a5 5 0 0 1-1.387-6.934 4.999 4.999 0 0 1 6.934-1.387l7.227 4.817V115a5 5 0 1 1 10 0v30.657l7.227-4.817a5 5 0 1 1 5.547 8.321l-14.943 9.963a5.009 5.009 0 0 1-5.662-.001z"/></svg>