<svg xmlns="http://www.w3.org/2000/svg" fill="#6a507e" viewBox="0 0 320 320"  preserveAspectRatio="xMidYMin slice" xmlns:v="https://vecta.io/nano"><path d="M100 184.55h0a5 5 0 01-3.24-1.22c-29.46-25.18-56-23-68.12-10.32a5 5 0 11-7.22-6.92a38.81 38.81 0 0114.8-9.51c-4.63-14-10.38-27-15.38-34.62a5 5 0 013-7.59A229 229 0 0149 109.94l-8.8-39.3a5 5 0 014.88-6.09h25v-25a5 5 0 015-5h20v-15a5 5 0 1110 0v15h20a5 5 0 015 5v25h25a5 5 0 014.92 6.09L151.21 110a227.19 227.19 0 0125 4.41a5 5 0 013 7.59c-5 7.66-10.75 20.64-15.38 34.62a38.73 38.73 0 0114.8 9.51a5 5 0 01-7.22 6.92c-12.15-12.68-38.66-14.86-68.13 10.33a5 5 0 01-3.25 1.21h0zm-47.62-30.72c12.61 0 27.27 4.5 42.64 15.47l.1-52.32c-22.49.24-44.67 2.12-62.31 5.65a199.08 199.08 0 0113.13 31.6a51.91 51.91 0 016.44-.4zM105.12 117l-.1 52.29c18-12.86 35.13-16.83 49-15a199.22 199.22 0 0113.13-31.61c-6.76-1.35-14.21-2.47-22.09-3.34a5.05 5.05 0 01-1-.11c-12.25-1.38-25.54-2.11-38.94-2.23zm-5-10c14 0 28.06.62 41.12 1.86l7.67-34.31H51.36l7.64 34.3c13.09-1.23 27.09-1.85 41.09-1.85zm-20-42.45h40v-20h-40zm55 30h-10a5 5 0 010-10h10a5 5 0 010 10zm-30 0h-10a5 5 0 010-10h10a5 5 0 010 10zm-30 0h-10a5 5 0 010-10h10a5 5 0 010 10z"/></svg>