<svg fill="#6a507e" viewBox="0 0 320 320"  preserveAspectRatio="xMidYMin slice"  xmlns="http://www.w3.org/2000/svg"  class="ui-layout-VerticalIcon hsCY-menu-item-icon hsCY-cars" role="presentation" aria-hidden="true" aria-label="Billeje-ikon" cleanup=""><path d="M165 160h-10c-7.2 0-13.2-5.1-14.7-11.9c-26.8 2.5-53.9 2.5-80.6 0c-1.5 6.8-7.5 11.9-14.7 11.9H35c-8.3 0-15-6.7-15-15v-43.7c-2.1-.5-4.2-1-6.2-1.5c-2.7-.7-4.3-3.4-3.6-6.1c.7-2.7 3.4-4.3 6.1-3.6c1.6.4 3.2.8 4.7 1.1l12.4-37.7C34.9 49 39.2 45 44.7 44c30-5.3 80.7-5.3 110.6 0c5.5 1 9.8 4.9 11.4 9.7L179 91.4c1.6-.4 3.1-.8 4.7-1.2c2.7-.7 5.4.9 6.1 3.6c.7 2.7-.9 5.4-3.6 6.1c-2.1.5-4.2 1.1-6.3 1.6v43.6c.1 8.2-6.6 14.9-14.9 14.9zm-15-17.4v2.4c0 2.8 2.2 5 5 5h10c2.8 0 5-2.2 5-5v-19.2c-11 1.6-26.2 3.5-34.6 4.2c-2.8.2-5.2-1.8-5.4-4.6c-.2-2.8 1.8-5.2 4.6-5.4c8.4-.7 24.6-2.8 35.4-4.3v-12.1c-43.8 8.7-94.9 8.7-140-.1v12.2c10.8 1.6 27 3.7 35.4 4.3c2.8.2 4.8 2.6 4.6 5.4c-.2 2.8-2.6 4.8-5.4 4.6c-8.4-.7-23.6-2.6-34.6-4.2V145c0 2.8 2.2 5 5 5h10c2.8 0 5-2.2 5-5v-2.4c0-2.9 2.5-5.3 5.5-5c29.5 3.2 59.4 3.2 88.9 0c3.1-.3 5.6 2.1 5.6 5zM30.8 93.4c44.6 8.9 95.3 8.9 138.5.1l-12-36.7c-.6-1.6-2-2.7-3.6-3c-29-5.1-78.1-5.1-107.2 0c-1.7.3-3.1 1.4-3.6 3L30.8 93.4zm74.4-4c-2.4-1.4-3.2-4.4-1.9-6.8C107.7 74.8 116 70 125 70s17.1 4.7 21.6 12.5c1.4 2.4.6 5.4-1.8 6.8c-2.4 1.4-5.4.6-6.8-1.8c-2.7-4.7-7.6-7.5-13-7.5s-10.3 2.9-12.9 7.5c-1.4 2.4-4.5 3.2-6.9 1.9z"/></svg>