<svg xmlns="http://www.w3.org/2000/svg" viewBox="0 0 156 156" xmlns:v="https://vecta.io/nano"><defs><linearGradient x1=".026%" y1="50.008%" x2="100%" y2="50.008%" id="A"><stop stop-color="#fcb913" offset="0%"/><stop stop-color="#fbac15" offset="7%"/><stop stop-color="#f57a1b" offset="38%"/><stop stop-color="#f15620" offset="64%"/><stop stop-color="#ef4023" offset="86%"/><stop stop-color="#ee3824" offset="100%"/></linearGradient><linearGradient x1=".027%" y1="49.985%" x2="100%" y2="49.985%" id="B"><stop stop-color="#e84698" offset="0%"/><stop stop-color="#e64392" offset="18%"/><stop stop-color="#e23c82" offset="42%"/><stop stop-color="#db3166" offset="69%"/><stop stop-color="#d12040" offset="98%"/><stop stop-color="#d01f3d" offset="100%"/></linearGradient><linearGradient x1="-.015%" y1="50.04%" x2="99.966%" y2="50.04%" id="C"><stop stop-color="#48c3d6" offset="0%"/><stop stop-color="#42bbd3" offset="18%"/><stop stop-color="#32a6ca" offset="44%"/><stop stop-color="#1784bb" offset="76%"/><stop stop-color="#0067ae" offset="100%"/></linearGradient><linearGradient x1=".001%" y1="50.048%" x2="100%" y2="50.048%" id="D"><stop stop-color="#e84698" offset="0%"/><stop stop-color="#e64392" offset="18%"/><stop stop-color="#e23c82" offset="42%"/><stop stop-color="#db3166" offset="69%"/><stop stop-color="#d12040" offset="98%"/><stop stop-color="#d01f3d" offset="100%"/></linearGradient><linearGradient x1=".03%" y1="49.99%" x2="100.045%" y2="49.99%" id="E"><stop stop-color="#fcb913" offset="0%"/><stop stop-color="#fbac15" offset="7%"/><stop stop-color="#f57a1b" offset="38%"/><stop stop-color="#f15620" offset="64%"/><stop stop-color="#ef4023" offset="86%"/><stop stop-color="#ee3824" offset="100%"/></linearGradient><linearGradient x1=".008%" y1="49.989%" x2="99.979%" y2="49.989%" id="F"><stop stop-color="#e84698" offset="0%"/><stop stop-color="#e64392" offset="18%"/><stop stop-color="#e23c82" offset="42%"/><stop stop-color="#db3166" offset="69%"/><stop stop-color="#d12040" offset="98%"/><stop stop-color="#d01f3d" offset="100%"/></linearGradient><linearGradient x1="-.011%" y1="50.024%" x2="99.999%" y2="50.024%" id="G"><stop stop-color="#48c3d6" offset="0%"/><stop stop-color="#42bbd3" offset="18%"/><stop stop-color="#32a6ca" offset="44%"/><stop stop-color="#1784bb" offset="76%"/><stop stop-color="#0067ae" offset="100%"/></linearGradient><linearGradient x1=".001%" y1="49.995%" x2="100.01%" y2="49.995%" id="H"><stop stop-color="#fcb913" offset="0%"/><stop stop-color="#fbac15" offset="7%"/><stop stop-color="#f57a1b" offset="38%"/><stop stop-color="#f15620" offset="64%"/><stop stop-color="#ef4023" offset="86%"/><stop stop-color="#ee3824" offset="100%"/></linearGradient><linearGradient x1="-.015%" y1="50.005%" x2="99.99%" y2="50.005%" id="I"><stop stop-color="#48c3d6" offset="0%"/><stop stop-color="#42bbd3" offset="18%"/><stop stop-color="#32a6ca" offset="44%"/><stop stop-color="#1784bb" offset="76%"/><stop stop-color="#0067ae" offset="100%"/></linearGradient><linearGradient x1="-.005%" y1="49.951%" x2="100.001%" y2="49.951%" id="J"><stop stop-color="#e84698" offset="0%"/><stop stop-color="#e64392" offset="18%"/><stop stop-color="#e23c82" offset="42%"/><stop stop-color="#db3166" offset="69%"/><stop stop-color="#d12040" offset="98%"/><stop stop-color="#d01f3d" offset="100%"/></linearGradient><linearGradient x1="-.02%" y1="49.977%" x2="100.002%" y2="49.977%" id="K"><stop stop-color="#48c3d6" offset="0%"/><stop stop-color="#42bbd3" offset="18%"/><stop stop-color="#32a6ca" offset="44%"/><stop stop-color="#1784bb" offset="76%"/><stop stop-color="#0067ae" offset="100%"/></linearGradient><linearGradient x1="-.003%" y1="50%" x2="100.01%" y2="50%" id="L"><stop stop-color="#fcb913" offset="0%"/><stop stop-color="#fbac15" offset="7%"/><stop stop-color="#f57a1b" offset="38%"/><stop stop-color="#f15620" offset="64%"/><stop stop-color="#ef4023" offset="86%"/><stop stop-color="#ee3824" offset="100%"/></linearGradient></defs><path d="M66.723.81a1.13 1.13 0 00-.947 1.116 1.006 1.006 0 000 .144l7.373 47.78v.09a.777.777 0 00.776.618l.152-.02a30.07 30.07 0 013.907-.272 29.42 29.42 0 013.928.276h.143a.776.776 0 00.772-.723l7.374-47.703c0-.035.023-.183.023-.218 0-.522-.358-.976-.865-1.097-.032 0-.16-.023-.195-.03A78.832 78.832 0 0078 0a77.604 77.604 0 00-11.254.81h-.023z" fill="url(#A)"/><path d="M66.723 154.794a1.123 1.123 0 01-.947-1.113.932.932 0 010-.144l7.373-47.78v-.09a.777.777 0 01.776-.618h.152c2.598.369 5.236.369 7.835 0h.143a.777.777 0 01.772.724l7.374 47.694c0 .04.023.183.023.222 0 .523-.358.977-.865 1.097l-.195.031a78.582 78.582 0 01-22.433 0l-.008-.023z" fill="url(#B)"/><path d="M154.8 66.5a1.118 1.118 0 00-1.105-.949h-.148l-47.665 7.392a.465.465 0 00-.085 0 .778.778 0 00-.617.754v.152a28.247 28.247 0 010 7.858v.144c0 .353.238.661.578.751l.143.024 47.577 7.391c.038 0 .186.023.225.023.52.001.973-.359 1.09-.867.015-.063.025-.127.031-.19a78.937 78.937 0 000-22.49l-.023.007z" fill="url(#C)"/><path d="M1.2 66.5a1.126 1.126 0 011.109-.949h.147l47.666 7.392a.422.422 0 01.085 0 .778.778 0 01.617.754.99.99 0 010 .152 29.892 29.892 0 00-.271 3.918c.003 1.317.095 2.632.275 3.937v.143c0 .352-.236.66-.574.751l-.144.024-47.58 7.391c-.035 0-.182.024-.217.024a1.122 1.122 0 01-1.09-.868 1.56 1.56 0 01-.032-.19 79.074 79.074 0 010-22.49l.008.011z" fill="url(#D)"/><path d="M106.639 5.478a1.124 1.124 0 0 0-1.44.622L87.736 51.177a.779.779 0 0 0 .454 1.066 28.37 28.37 0 0 1 6.784 3.929l.116.085a.775.775 0 0 0 .94-.128s.07-.074.092-.109l30.168-37.619.124-.183c.259-.45.175-1.02-.201-1.377a1.382 1.382 0 0 0-.152-.124 79.014 79.014 0 0 0-9.255-6.299 77.638 77.638 0 0 0-10.144-4.937l-.023-.003z" fill="url(#E)"/><path d="M29.834 138.828a1.122 1.122 0 01-.268-1.435c.024-.04.055-.078.082-.117l30.226-37.685a.775.775 0 011.145-.132 30.447 30.447 0 003.248 2.198 28.911 28.911 0 003.539 1.727l.132.058a.779.779 0 01.36.88s-.03.097-.046.14l-17.416 44.983a.92.92 0 01-.09.202c-.26.45-.794.662-1.292.514a1.895 1.895 0 01-.178-.074 78.232 78.232 0 01-19.426-11.25l-.016-.009z" fill="url(#F)"/><path d="M150.148 106.512a1.126 1.126 0 00-.489-1.377.752.752 0 00-.132-.059l-44.96-17.506-.082-.035a.775.775 0 00-.974.49 30.766 30.766 0 01-1.72 3.529 29.594 29.594 0 01-2.203 3.271.78.78 0 00.151 1.152l37.525 30.24a1.116 1.116 0 001.552-.07l.121-.153a79.021 79.021 0 0011.211-19.478v-.004z" fill="url(#G)"/><path d="M17.129 29.52a1.115 1.115 0 011.432-.265.636.636 0 01.12.085L56.27 59.63l.07.058a.78.78 0 01.155.97l-.09.124a27.957 27.957 0 00-3.915 6.8l-.058.132a.775.775 0 01-.877.362l-.136-.05-44.88-17.452a.93.93 0 01-.201-.094 1.122 1.122 0 01-.512-1.291c.019-.063.042-.124.07-.183a78.686 78.686 0 0111.222-19.452l.012-.035z" fill="url(#H)"/><path d="M138.84 29.473a1.116 1.116 0 0 0-1.432-.265l-.12.086L99.72 59.61c-.024 0-.047.039-.07.054a.78.78 0 0 0-.151.969 1.35 1.35 0 0 0 .085.128 29.64 29.64 0 0 1 2.192 3.252 29.301 29.301 0 0 1 1.727 3.545 1.55 1.55 0 0 0 .058.132.775.775 0 0 0 .878.362l.14-.055 44.87-17.506.198-.093a1.122 1.122 0 0 0 .439-1.475 78.76 78.76 0 0 0-11.254-19.451h.008z" fill="url(#I)"/><path d="M5.875 106.566c-.198-.516.008-1.1.485-1.377l.136-.066 44.95-17.506a.322.322 0 01.084-.031.775.775 0 01.974.486 30.22 30.22 0 001.72 3.528 29.691 29.691 0 002.29 3.385.78.78 0 01-.125.941s-.078.07-.113.094l-37.498 30.27-.178.124a1.12 1.12 0 01-1.378-.202c-.023-.02-.1-.124-.124-.148a78.77 78.77 0 01-6.29-9.305 77.923 77.923 0 01-4.933-10.165v-.028z" fill="url(#J)"/><path d="M126.213 138.793a1.126 1.126 0 00.182-1.56L96.15 99.572a.775.775 0 00-1.14-.132 29.566 29.566 0 01-3.25 2.197 28.733 28.733 0 01-3.535 1.74l-.132.058a.779.779 0 00-.306 1.015l17.463 44.983c0 .035.073.167.089.203.26.453.797.666 1.296.513l.178-.07a78.617 78.617 0 0019.403-11.282l-.003-.004z" fill="url(#K)"/><path d="M49.315 5.497a1.12 1.12 0 0 1 1.37.49l.065.132L68.233 51.18l.027.086a.779.779 0 0 1-.485.98 28.459 28.459 0 0 0-6.78 3.933c-.037.032-.076.06-.116.086a.775.775 0 0 1-.94-.124 1.412 1.412 0 0 1-.089-.113L29.66 18.436a7.444 7.444 0 0 1-.133-.183c-.26-.45-.176-1.02.202-1.377a1.58 1.58 0 0 1 .152-.124 78.835 78.835 0 0 1 9.282-6.307 77.891 77.891 0 0 1 10.12-4.944l.032-.004z" fill="url(#L)"/></svg>