<svg width="1146" height="145" viewBox="0 0 1146 145" fill="none" xmlns="http://www.w3.org/2000/svg">
<path d="M1145.26 93.5844C1145.26 121.369 1128.93 143.977 1094.67 143.977C1061.96 143.977 1044.28 121.368 1044.28 93.5844C1044.28 65.6093 1060.9 43 1094.67 43C1128.93 43 1145.26 65.6093 1145.26 93.5844ZM1119 93.5844C1119 76.1464 1107.13 71.1654 1094.67 71.1654C1082.41 71.1654 1070.53 76.1464 1070.53 93.5844C1070.53 111.021 1082.41 115.81 1094.67 115.81C1107.13 115.81 1119 111.021 1119 93.5844Z" fill="url(#paint0_linear_702_439)"/>
<path d="M932.301 94.5481C932.301 66.573 954.911 43.9637 982.692 43.9637C991.506 43.9637 999.745 46.264 1007.03 50.0939V3.91546C1007.03 2.7664 1007.79 2 1008.94 2H1031.36C1032.32 2 1033.28 2.76746 1033.28 3.91546V94.5481C1033.28 122.333 1010.67 144.941 982.692 144.941C954.911 144.941 932.301 122.333 932.301 94.5481ZM982.693 116.774C995.149 116.774 1007.03 111.985 1007.03 94.5481C1007.03 77.1102 995.148 72.1291 982.693 72.1291C970.428 72.1291 958.551 77.1102 958.551 94.5481C958.551 111.985 970.427 116.774 982.693 116.774Z" fill="url(#paint1_linear_702_439)"/>
<path d="M695.427 142.977H673.011C671.859 142.977 671.095 142.21 671.095 141.061V92.5844C671.095 75.1464 659.213 70.1654 646.759 70.1654C634.496 70.1654 622.617 75.1464 622.617 92.5844V141.061C622.617 142.21 621.658 142.977 620.701 142.977H598.282C597.133 142.977 596.365 142.21 596.365 141.061V92.5844C596.365 75.1464 584.486 70.1654 572.033 70.1654C559.769 70.1654 547.889 75.1464 547.889 92.5844V141.061C547.889 142.21 546.933 142.977 545.974 142.977H523.555C522.406 142.977 521.639 142.21 521.639 141.061V92.5844C521.639 64.6093 539.278 42 572.033 42C586.977 42 600.198 48.3236 609.396 58.476C618.785 48.3225 632.006 42 646.759 42C679.589 42 697.344 64.6093 697.344 92.5844V141.061C697.344 142.211 696.386 142.977 695.427 142.977Z" fill="url(#paint2_linear_702_439)"/>
<path d="M809.322 94.5481C809.322 122.333 792.995 144.941 758.738 144.941C726.028 144.941 708.344 122.332 708.344 94.5481C708.344 66.573 724.964 43.9637 758.738 43.9637C792.995 43.9637 809.322 66.573 809.322 94.5481ZM783.07 94.5481C783.07 77.1102 771.192 72.1291 758.738 72.1291C746.474 72.1291 734.593 77.1102 734.593 94.5481C734.593 111.985 746.474 116.774 758.738 116.774C771.192 116.774 783.07 111.985 783.07 94.5481Z" fill="url(#paint3_linear_702_439)"/>
<path d="M919.385 144.977H896.968C895.816 144.977 895.052 144.21 895.052 143.061V94.5844C895.052 77.1464 883.172 72.1654 870.716 72.1654C858.453 72.1654 846.574 77.1464 846.574 94.5844V143.061C846.574 144.21 845.615 144.977 844.657 144.977H822.239C821.09 144.977 820.322 144.21 820.322 143.061V94.5844C820.322 66.6093 837.264 44 870.716 44C904.231 44 921.301 66.6093 921.301 94.5844V143.061C921.301 144.211 920.344 144.977 919.385 144.977Z" fill="url(#paint4_linear_702_439)"/>
<path d="M173.788 142.977H151.373C150.22 142.977 149.456 142.21 149.456 141.061V92.5844C149.456 75.1464 137.574 70.1654 125.121 70.1654C112.857 70.1654 100.979 75.1464 100.979 92.5844V141.061C100.979 142.21 100.02 142.977 99.062 142.977H76.643C75.4939 142.977 74.7265 142.21 74.7265 141.061V92.5844C74.7265 75.1464 62.8478 70.1654 50.3941 70.1654C38.1307 70.1654 26.2499 75.1464 26.2499 92.5844V141.061C26.2499 142.21 25.2943 142.977 24.3355 142.977H1.91653C0.767461 142.977 0 142.21 0 141.061V92.5844C0 64.6093 17.6388 42 50.3941 42C65.3383 42 78.5595 48.3236 87.7573 58.476C97.1465 48.3225 110.368 42 125.121 42C157.95 42 175.705 64.6093 175.705 92.5844V141.061C175.705 142.211 174.746 142.977 173.788 142.977Z" fill="url(#paint5_linear_702_439)"/>
<path d="M287.979 94.5844C287.979 122.369 271.651 144.977 237.394 144.977C204.685 144.977 187 122.368 187 94.5844C187 66.6093 203.621 44 237.394 44C271.651 44 287.979 66.6093 287.979 94.5844ZM261.726 94.5844C261.726 77.1464 249.848 72.1654 237.394 72.1654C225.131 72.1654 213.249 77.1464 213.249 94.5844C213.249 112.021 225.131 116.81 237.394 116.81C249.848 116.81 261.726 112.021 261.726 94.5844Z" fill="url(#paint6_linear_702_439)"/>
<path d="M349.394 42C373.143 42 388.274 52.8658 395.323 68.8523C395.785 69.9004 395.219 71.1015 394.132 71.4622L372.857 78.521C371.789 78.8754 370.656 78.2629 370.154 77.2552C366.626 70.1654 357.275 70.1654 349.394 70.1654C337.131 70.1654 325.249 75.1464 325.249 92.5844C325.249 110.021 337.131 114.81 349.394 114.81C357.775 114.81 367.816 113.13 371.159 106.124C371.657 105.08 372.818 104.426 373.915 104.79L394.894 111.751C395.953 112.102 396.524 113.254 396.115 114.293C389.448 131.243 374.074 142.977 349.394 142.977C316.685 142.977 299 120.368 299 92.5844C299 64.6093 315.621 42 349.394 42Z" fill="url(#paint7_linear_702_439)"/>
<path d="M397.634 102.124C397.661 102.133 397.672 102.111 397.644 102.102V102.102C397.616 102.093 397.606 102.114 397.634 102.124V102.124Z" fill="url(#paint8_linear_702_439)"/>
<path d="M436 1.76701V80.4552H460.393C476.692 80.4552 482.109 70.0752 482.746 58.7051H482.978V45C482.978 43.8954 483.873 43 484.978 43H508.978C510.082 43 510.978 43.8954 510.978 45L510.978 60.9381C510.978 61.2436 510.898 61.5199 510.761 61.7584C509.647 75.4797 504.303 86.2163 496.22 93.75C504.303 101.284 509.647 112.02 510.761 125.742C510.898 125.98 510.978 126.256 510.978 126.562L510.978 142.5C510.978 143.605 510.082 144.5 508.978 144.5H484.978C483.873 144.5 482.978 143.605 482.978 142.5V128.795H482.746C482.109 117.425 476.692 107.045 460.393 107.045H436V143.233C436 144.292 435.039 145 434.082 145H411.642C410.902 145 410.321 144.707 410 144.215V0.784617C410.321 0.293023 410.902 0 411.642 0H434.082C435.039 0 436 0.707979 436 1.76701Z" fill="url(#paint9_linear_702_439)"/>
<defs>
<linearGradient id="paint0_linear_702_439" x1="1094.77" y1="43" x2="1094.77" y2="143.977" gradientUnits="userSpaceOnUse">
<stop stop-color="#FFBA00"/>
<stop offset="1" stop-color="#FF2E00"/>
</linearGradient>
<linearGradient id="paint1_linear_702_439" x1="982.791" y1="2" x2="982.791" y2="144.941" gradientUnits="userSpaceOnUse">
<stop stop-color="#FFBA00"/>
<stop offset="1" stop-color="#FF2E00"/>
</linearGradient>
<linearGradient id="paint2_linear_702_439" x1="609.492" y1="42" x2="609.492" y2="142.977" gradientUnits="userSpaceOnUse">
<stop stop-color="#FF30AE"/>
<stop offset="1" stop-color="#D1003A"/>
</linearGradient>
<linearGradient id="paint3_linear_702_439" x1="758.834" y1="43.9637" x2="758.834" y2="144.941" gradientUnits="userSpaceOnUse">
<stop stop-color="#FF30AE"/>
<stop offset="1" stop-color="#D1003A"/>
</linearGradient>
<linearGradient id="paint4_linear_702_439" x1="870.812" y1="44" x2="870.812" y2="144.977" gradientUnits="userSpaceOnUse">
<stop stop-color="#FF30AE"/>
<stop offset="1" stop-color="#D1003A"/>
</linearGradient>
<linearGradient id="paint5_linear_702_439" x1="87.852" y1="42" x2="87.852" y2="142.977" gradientUnits="userSpaceOnUse">
<stop stop-color="#00D7E5"/>
<stop offset="1" stop-color="#0066AE"/>
</linearGradient>
<linearGradient id="paint6_linear_702_439" x1="237.49" y1="44" x2="237.49" y2="144.977" gradientUnits="userSpaceOnUse">
<stop stop-color="#00D7E5"/>
<stop offset="1" stop-color="#0066AE"/>
</linearGradient>
<linearGradient id="paint7_linear_702_439" x1="349.49" y1="42" x2="349.49" y2="142.977" gradientUnits="userSpaceOnUse">
<stop stop-color="#00D7E5"/>
<stop offset="1" stop-color="#0066AE"/>
</linearGradient>
<linearGradient id="paint8_linear_702_439" x1="349.49" y1="42" x2="349.49" y2="142.977" gradientUnits="userSpaceOnUse">
<stop stop-color="#00D7E5"/>
<stop offset="1" stop-color="#0066AE"/>
</linearGradient>
<linearGradient id="paint9_linear_702_439" x1="460" y1="42.5" x2="460" y2="145" gradientUnits="userSpaceOnUse">
<stop stop-color="#00D7E5"/>
<stop offset="0.388878" stop-color="#00ABD0"/>
<stop offset="1" stop-color="#0066AE"/>
</linearGradient>
</defs>
</svg>
