<svg xmlns="http://www.w3.org/2000/svg" fill="#6a507e" viewBox="0 0 200 200" xmlns:v="https://vecta.io/nano"><path d="M180 100c0-44.1-35.9-80-80-80s-80 35.9-80 80 35.9 80 80 80 80-35.9 80-80zm-80-70c38.6 0 70 31.4 70 70a69.44 69.44 0 0 1-15 43.2c-.5-.7-1-1.4-1.7-2-3.2-3.1-17.3-7.1-27.3-9.6 9.5-10.2 13.9-25.5 13.9-38.3 0-28.7-13.5-43.3-40-43.3s-40 14.6-40.1 43.3c0 12.8 4.4 28.1 13.9 38.3-9.9 2.5-24 6.5-27.2 9.5-.6.6-1.2 1.2-1.7 2C35.6 131.2 30 116.2 30 100c0-38.6 31.4-70 70-70zM52 150.9c.6-1.4 1.1-2.1 1.3-2.4 3.4-2.2 25.1-8 32.5-9.5 4.5-.9 5.5-7 1.4-9.3-10.4-5.8-17.4-20.5-17.4-36.4C70 70 79 60 100 60c20.7 0 30 10.3 30 33.3 0 15.7-7.2 30.7-17.4 36.4-4 2.2-3.1 8.3 1.4 9.2 9.6 2.1 29.4 7.4 32.6 9.5.3.3.8 1.1 1.4 2.4-27.1 25.5-69 25.6-96 .1z"/></svg>