<svg fill="#6a507e" xmlns="http://www.w3.org/2000/svg" viewBox="0 0 200 200" class="ui-layout-VerticalIcon hsCY-menu-item-icon hsCY-travelRestrictions" role="presentation" aria-hidden="true" aria-label="Rejserestriktioner-ikon" cleanup=""><path d="M102.13 190a5 5 0 01-2.57-.72A136.67 136.67 0 0134 84.85L28.59 37a5 5 0 016.55-5.31c.31.1 32.5 10.3 64.22-10.84a5 5 0 015.54 0c31.88 21.25 63.9 11 64.22 10.84a5 5 0 016.55 5.31l-5.39 47.86a136.67 136.67 0 01-65.58 104.42a5 5 0 01-2.57.72zM39.32 42.94l4.6 40.85a.34.34 0 010 .1a126.7 126.7 0 0058.2 95.23a126.7 126.7 0 0058.2-95.23a.34.34 0 010-.1l4.6-40.85a89.4 89.4 0 01-62.81-12a89.4 89.4 0 01-62.79 12zm85.78 21.77c-11.91-.52-19.47 7.7-23 12.76c-3.5-5.06-11-13.28-23-12.76a23.56 23.56 0 00-22.41 23.2c0 9.67 5.58 20.69 16.6 32.74a206.14 206.14 0 0024.11 23a7.52 7.52 0 009.35 0c7.31-5.74 15.19-13.28 24.12-23c11-12.05 16.6-23.07 16.6-32.74a23.56 23.56 0 00-22.37-23.2z"/></svg>