<svg fill="#fff" viewBox="0 0 200 200" xmlns="http://www.w3.org/2000/svg"><path d="M66.609 173.144c67.927 0 105.074-56.276 105.074-105.074c0-1.599-.032-3.191-.106-4.774A75.133 75.133 0 0 0 190 44.175a73.717 73.717 0 0 1-21.208 5.813c7.624-4.571 13.478-11.805 16.239-20.428a74.017 74.017 0 0 1-23.449 8.964c-6.739-7.178-16.336-11.668-26.957-11.668c-20.396 0-36.935 16.539-36.935 36.927c0 2.899.325 5.716.958 8.42c-30.692-1.542-57.908-16.238-76.12-38.583a36.796 36.796 0 0 0-5.002 18.561c0 12.813 6.52 24.123 16.434 30.74a36.651 36.651 0 0 1-16.726-4.62c-.008.154-.008.309-.008.471c0 17.887 12.731 32.819 29.628 36.205a37.035 37.035 0 0 1-9.735 1.299c-2.379 0-4.693-.235-6.942-.666c4.701 14.672 18.334 25.349 34.5 25.65c-12.642 9.905-28.564 15.808-45.867 15.808c-2.98 0-5.919-.171-8.81-.511c16.344 10.473 35.75 16.587 56.609 16.587"/></svg>